<mxfile host="app.diagrams.net" modified="2021-01-04T05:05:39.642Z" agent="5.0 (Windows NT 6.1; Win64; x64) AppleWebKit/537.36 (KHTML, like Gecko) Chrome/87.0.4280.88 Safari/537.36" etag="K-0AO66GS-82beUL69NU" version="14.1.2" type="github">
  <diagram id="lSEdCoSI53LmKiAE6rcI" name="Page-1">
    <mxGraphModel dx="791" dy="450" grid="1" gridSize="10" guides="1" tooltips="1" connect="1" arrows="1" fold="1" page="1" pageScale="1" pageWidth="850" pageHeight="1100" math="0" shadow="0">
      <root>
        <mxCell id="0" />
        <mxCell id="1" parent="0" />
        <mxCell id="lpdqEVDEvRfxZyCSahdH-1" value="Changer Requester" style="shape=umlActor;verticalLabelPosition=bottom;verticalAlign=top;html=1;" vertex="1" parent="1">
          <mxGeometry x="70" y="210" width="30" height="60" as="geometry" />
        </mxCell>
        <mxCell id="lpdqEVDEvRfxZyCSahdH-2" value="Signup" style="ellipse;whiteSpace=wrap;html=1;" vertex="1" parent="1">
          <mxGeometry x="300" y="110" width="140" height="70" as="geometry" />
        </mxCell>
        <mxCell id="lpdqEVDEvRfxZyCSahdH-3" value="Change Approver" style="shape=umlActor;verticalLabelPosition=bottom;verticalAlign=top;html=1;" vertex="1" parent="1">
          <mxGeometry x="660" y="210" width="30" height="60" as="geometry" />
        </mxCell>
        <mxCell id="lpdqEVDEvRfxZyCSahdH-4" value="Login" style="ellipse;whiteSpace=wrap;html=1;" vertex="1" parent="1">
          <mxGeometry x="300" y="210" width="140" height="70" as="geometry" />
        </mxCell>
        <mxCell id="lpdqEVDEvRfxZyCSahdH-5" value="Get Approvers" style="ellipse;whiteSpace=wrap;html=1;" vertex="1" parent="1">
          <mxGeometry x="300" y="310" width="140" height="70" as="geometry" />
        </mxCell>
        <mxCell id="lpdqEVDEvRfxZyCSahdH-8" value="Get Changes" style="ellipse;whiteSpace=wrap;html=1;" vertex="1" parent="1">
          <mxGeometry x="300" y="420" width="140" height="70" as="geometry" />
        </mxCell>
        <mxCell id="lpdqEVDEvRfxZyCSahdH-9" value="Get Pending Approvers" style="ellipse;whiteSpace=wrap;html=1;" vertex="1" parent="1">
          <mxGeometry x="60" y="360" width="140" height="70" as="geometry" />
        </mxCell>
        <mxCell id="lpdqEVDEvRfxZyCSahdH-10" value="Get Pending Changes" style="ellipse;whiteSpace=wrap;html=1;" vertex="1" parent="1">
          <mxGeometry x="520" y="470" width="140" height="70" as="geometry" />
        </mxCell>
      </root>
    </mxGraphModel>
  </diagram>
</mxfile>
